<?xml version="1.0" encoding="utf-8"?>
<!-- Generator: Adobe Illustrator 22.0.1, SVG Export Plug-In . SVG Version: 6.00 Build 0)  -->
<svg version="1.1" id="Layer_1" xmlns="http://www.w3.org/2000/svg" xmlns:xlink="http://www.w3.org/1999/xlink" x="0px" y="0px"
	 viewBox="0 0 512 512" style="enable-background:new 0 0 512 512;" xml:space="preserve">
<style type="text/css">
	.st0{fill:#D0C792;}
</style>
<g transform="translate(1 1)">
	<g>
		<path class="st0" d="M385.5,164.3l62.1-77.6c2.6-3.5,2.6-6.9,0.9-10.4l-34.7-52.1c-1.7-1.7-4.3-3.5-6.9-3.5H285.4
			c-2.6,0-5.2,1.7-7.8,3.5l-34.7,52.1c-1.5,3.1-1.7,6.8,0,9.4c0.5,1.1,1.3,2,2.2,2.7l60.9,76.1c-17.8,4.5-34.7,12.1-50.5,23
			c-27.5-18.6-58.8-28-91.6-28C72.8,159.5-1,233.3-1,324.4s73.8,164.9,164.9,164.9c32.4,0,63.3-9.1,90.6-28
			c27.5,18.6,58.8,28,91.6,28c91.1,0,164.9-73.8,164.9-164.9C511,246.9,457.6,181.9,385.5,164.3z M268.7,90.1h21.8l34.7,34.7h-28.7
			L268.7,90.1z M314.9,72.8l31.2-31.2l31.2,31.2H314.9z M377.4,90.1l-31.2,31.2l-31.2-31.2H377.4z M401.7,90.1h21.1l-27.5,34.7
			h-28.3L401.7,90.1z M425.2,72.8h-23.5l-34.7-34.7h35.6L425.2,72.8z M289.7,38.1h35.6l-34.7,34.7h-24.2L289.7,38.1z M324.4,159.5
			l-13.9-17.4h71l-13.7,17.4H324.4z M16.4,324.4c0-81.6,66-147.5,147.5-147.5c31.2,0,60.7,9.5,85.9,28.6c2.8,2,5.6,4,8.3,6.2
			c2.7,2.2,5.3,4.4,7.9,6.8c2.5,2.4,5,4.9,7.4,7.5c1.2,1.3,2.3,2.6,3.5,4c1.1,1.4,2.2,2.7,3.3,4.1c20.8,26,31.2,57.3,31.2,90.3
			c0,30.3-9.5,58.9-26.8,84c-3.7-2.6-7.3-5.5-10.6-8.6c-3.1-3-6.1-6.1-8.6-9.5c13-20,20-42.5,20-66c0-26-7.8-50.3-23.4-71.2
			c-0.6-0.8-1.2-1.6-1.8-2.4c-7.3-9.5-15.7-17.6-25.4-24.6c-2.4-1.8-4.9-3.4-7.5-5.1c-0.3-0.3-0.7-0.5-1.1-0.7
			c-18.8-11.7-40.1-17.6-62.3-17.6c-66.8,0-121.5,54.7-121.5,121.5s54.7,121.5,121.5,121.5c19.7,0,39.4-5.1,56.7-14.4
			c5.9,6.8,12.4,13,19.4,18.9c-23.4,13.8-49.3,21.5-76.1,21.5C82.3,471.9,16.4,406,16.4,324.4z M300,231.1
			c14.4-7.2,30.3-10.8,46.1-10.8c57.3,0,104.1,46.9,104.1,104.1s-46.9,104.1-104.1,104.1c-15.9,0-31.8-3.6-46.1-10.8
			c18.8-27.7,28.8-59.4,28.8-93.3C328.8,290.5,318.7,258.8,300,231.1z M242,324.4c0-17.5,4.5-35,13.1-50.3
			c8.4,15.6,12.9,32.9,12.9,50.3c0,17.5-4.5,35-13.1,50.3C246.4,359.1,242,341.8,242,324.4z M210,231.1
			c-18.8,27.7-28.8,59.4-28.8,93.3s10,65.7,28.8,93.3c-14.4,7.2-30.3,10.8-46.1,10.8c-57.3,0-104.1-46.9-104.1-104.1
			s46.9-104.1,104.1-104.1C179.8,220.3,195.6,223.9,210,231.1z M346.1,471.9c-31.2,0-60.7-9.5-85.9-28.6c-9.9-6.8-19.1-15-27-24.5
			c-1.1-1.4-2.2-2.7-3.3-4.1c-20.8-26-31.2-57.3-31.2-90.3c0-30.3,9.5-58.9,26.8-84c1.7,1.2,3.4,2.5,5.1,3.8
			c4.9,4.2,9.5,9,14.1,14.2c-13,20-20,42.5-20,66c0,26,7.8,50.3,23.4,71.2c9.5,13,20.8,23.4,34.7,32.1c0.3,0.3,0.7,0.5,1.1,0.7
			c18.8,11.7,40.1,17.6,62.3,17.6c66.8,0,121.5-54.7,121.5-121.5s-54.7-121.5-121.5-121.5c-19.7,0-39.4,5.1-56.7,14.4
			c-5.9-6.8-12.4-13-19.4-18.9c23.4-13.8,49.3-21.5,76.1-21.5c81.6,0,147.5,66,147.5,147.5S427.7,471.9,346.1,471.9z"/>
	</g>
</g>
</svg>
